<svg width="400" height="280" xmlns="http://www.w3.org/2000/svg">
  <defs>
    <style>
      .placeholder-bg { fill: #f5f7fa; }
      .placeholder-border { stroke: #ddd; stroke-width: 1; fill: none; }
      .placeholder-text { font-family: -apple-system, BlinkMacSystemFont, "Segoe UI", Roboto, sans-serif; font-size: 14px; fill: #666; }
      .placeholder-label { font-weight: 600; font-size: 12px; fill: #1a1a40; }
      .placeholder-small { font-size: 10px; fill: #999; }
    </style>
  </defs>

  <rect class="placeholder-bg" width="400" height="280" />
  <rect class="placeholder-border" x="10" y="10" width="380" height="260" />

  <!-- Header -->
  <rect fill="#1a1a40" x="10" y="10" width="380" height="35" />
  <text class="placeholder-text" x="20" y="32" style="fill: white; font-weight: 600;">Access Policies — 역할 × 분류등급 권한 매트릭스</text>

  <!-- Column Headers -->
  <line x1="10" y1="45" x2="390" y2="45" stroke="#ddd" stroke-width="1" />
  <text class="placeholder-label" x="15" y="62">역할</text>
  <text class="placeholder-label" x="80" y="62">Public</text>
  <text class="placeholder-label" x="150" y="62">Internal</text>
  <text class="placeholder-label" x="230" y="62">Confidential</text>
  <text class="placeholder-label" x="330" y="62">Restricted</text>

  <!-- Row 1: Admin -->
  <line x1="10" y1="75" x2="390" y2="75" stroke="#e0e0e0" stroke-width="1" />
  <text class="placeholder-text" x="15" y="92">Admin</text>
  <text x="90" y="92" style="font-size: 16px; text-align: center;">☑</text>
  <text x="160" y="92" style="font-size: 16px; text-align: center;">☑</text>
  <text x="240" y="92" style="font-size: 16px; text-align: center;">☑</text>
  <text x="345" y="92" style="font-size: 16px; text-align: center;">☑</text>

  <!-- Row 2: Manager -->
  <line x1="10" y1="105" x2="390" y2="105" stroke="#f5f5f5" stroke-width="1" />
  <rect fill="#f5f5f5" x="10" y="105" width="380" height="25" />
  <text class="placeholder-text" x="15" y="122">Manager</text>
  <text x="90" y="122" style="font-size: 16px;">☑</text>
  <text x="160" y="122" style="font-size: 16px;">☑</text>
  <text x="240" y="122" style="font-size: 16px;">☑</text>
  <text x="345" y="122" style="font-size: 16px;">☐</text>

  <!-- Row 3: Power User -->
  <line x1="10" y1="130" x2="390" y2="130" stroke="#e0e0e0" stroke-width="1" />
  <text class="placeholder-text" x="15" y="147">Power User</text>
  <text x="90" y="147" style="font-size: 16px;">☑</text>
  <text x="160" y="147" style="font-size: 16px;">☑</text>
  <text x="240" y="147" style="font-size: 16px;">☐</text>
  <text x="345" y="147" style="font-size: 16px;">☐</text>

  <!-- Row 4: User -->
  <line x1="10" y1="160" x2="390" y2="160" stroke="#f5f5f5" stroke-width="1" />
  <rect fill="#f5f5f5" x="10" y="160" width="380" height="25" />
  <text class="placeholder-text" x="15" y="177">User</text>
  <text x="90" y="177" style="font-size: 16px;">☑</text>
  <text x="160" y="177" style="font-size: 16px;">☑</text>
  <text x="240" y="177" style="font-size: 16px;">☐</text>
  <text x="345" y="177" style="font-size: 16px;">☐</text>

  <!-- Row 5: Viewer -->
  <line x1="10" y1="185" x2="390" y2="185" stroke="#e0e0e0" stroke-width="1" />
  <text class="placeholder-text" x="15" y="202">Viewer</text>
  <text x="90" y="202" style="font-size: 16px;">☑</text>
  <text x="160" y="202" style="font-size: 16px;">☐</text>
  <text x="240" y="202" style="font-size: 16px;">☐</text>
  <text x="345" y="202" style="font-size: 16px;">☐</text>

  <!-- Footer note -->
  <line x1="10" y1="220" x2="390" y2="220" stroke="#ddd" stroke-width="1" />
  <text class="placeholder-small" x="15" y="240">✓ 체크박스: 허용  |  실시간 정책 변경  |  모든 접근 감시로깅</text>
  <text class="placeholder-small" x="15" y="255">실제 관리 화면으로 교체 필요 (kyra-guardrail-dev.seekerslab.com/documents → Access Policies)</text>
</svg>